<?xml version="1.0" encoding="UTF-8" standalone="no"?>
<!-- Created with Inkscape (http://www.inkscape.org/) -->

<svg
   version="1.1"
   id="svg13122"
   width="50"
   height="50"
   viewBox="0 0 50 50"
   sodipodi:docname="boat.svg"
   inkscape:version="1.1 (c68e22c387, 2021-05-23)"
   xmlns:inkscape="http://www.inkscape.org/namespaces/inkscape"
   xmlns:sodipodi="http://sodipodi.sourceforge.net/DTD/sodipodi-0.dtd"
   xmlns="http://www.w3.org/2000/svg"
   xmlns:svg="http://www.w3.org/2000/svg">
  <defs
     id="defs13126" />
  <sodipodi:namedview
     id="namedview13124"
     pagecolor="#ffffff"
     bordercolor="#666666"
     borderopacity="1.0"
     inkscape:pageshadow="2"
     inkscape:pageopacity="0.0"
     inkscape:pagecheckerboard="0"
     showgrid="false"
     width="50px"
     inkscape:zoom="6.3877698"
     inkscape:cx="21.995157"
     inkscape:cy="-4.1485527"
     inkscape:window-width="1920"
     inkscape:window-height="1013"
     inkscape:window-x="1791"
     inkscape:window-y="-9"
     inkscape:window-maximized="1"
     inkscape:current-layer="g13128" />
  <g
     inkscape:groupmode="layer"
     inkscape:label="Image"
     id="g13128">
    <path
       style="fill:#000000;stroke-width:0.0953844"
       d="M 1.639561,46.296529 C 1.0165123,46.110089 0.55383635,45.363819 0.65910805,44.71512 0.77550657,43.997829 1.3649213,43.537308 2.1750083,43.530705 c 0.9023745,-0.0074 1.8869879,-0.26596 3.0093898,-0.790407 0.6154875,-0.287594 1.3336862,-0.595138 1.5959943,-0.683446 0.6503159,-0.218934 1.7849887,-0.430511 2.3087505,-0.430511 0.3662042,0 0.4246138,-0.02542 0.3836757,-0.166924 C 9.4462549,41.367607 8.2608658,38.36246 6.8386091,34.78131 5.4163549,31.200152 4.2526934,28.165739 4.2526934,28.038149 c 0,-0.127589 0.096578,-0.339456 0.2146174,-0.470807 0.1828801,-0.203528 0.7576281,-0.380359 3.8869321,-1.195892 2.0197741,-0.526381 6.6041401,-1.723127 10.1874801,-2.659446 l 6.515165,-1.702387 10.177186,2.65622 c 9.026932,2.356012 10.201443,2.683584 10.391805,2.898289 0.118036,0.133128 0.214616,0.345103 0.214616,0.471055 0,0.125959 -1.164619,3.160376 -2.588041,6.743161 -1.423422,3.582787 -2.607085,6.582653 -2.630364,6.666372 -0.03522,0.126678 0.08297,0.16211 0.704185,0.211072 1.108554,0.08738 2.030353,0.359399 3.45989,1.021005 1.284592,0.594524 2.208399,0.84639 3.132012,0.853914 1.351783,0.01099 2.014781,1.358296 1.151984,2.340972 -0.411247,0.468385 -0.813474,0.553018 -2.036887,0.428564 -1.244745,-0.126616 -1.983651,-0.345848 -3.386632,-1.004832 -1.414897,-0.664584 -1.990667,-0.807871 -3.23928,-0.806114 -1.295669,0.0018 -1.874941,0.145639 -3.389967,0.841693 -0.682005,0.313337 -1.497545,0.638597 -1.812315,0.722792 -0.95213,0.254701 -2.426484,0.35926 -3.505055,0.248576 -1.220219,-0.125216 -2.002575,-0.359906 -3.500308,-1.050003 -1.408812,-0.649138 -1.884498,-0.764466 -3.153125,-0.764466 -1.27206,0 -1.748087,0.115557 -3.147701,0.7641 -0.655769,0.303873 -1.481731,0.641075 -1.835469,0.749346 -0.961859,0.294392 -2.443067,0.4182 -3.618622,0.302462 -1.317059,-0.129673 -1.900593,-0.298164 -3.369009,-0.972807 -1.515026,-0.696054 -2.094297,-0.839875 -3.3899667,-0.841693 -1.2486113,-0.0018 -1.8243854,0.14153 -3.2392771,0.806114 -1.392131,0.653883 -2.1381332,0.877035 -3.3464854,1.001039 -1.0943536,0.112297 -1.0855043,0.112297 -1.4605008,0 z M 15.168574,31.414728 c 1.62944,-0.422687 4.517994,-1.17651 6.419015,-1.675164 l 3.456399,-0.90665 6.415935,1.67447 c 7.048171,1.839477 6.753838,1.790395 7.412792,1.235928 0.715219,-0.601821 0.569871,-1.838298 -0.266966,-2.271041 -0.140143,-0.07247 -2.50786,-0.7211 -5.261592,-1.441409 -8.707526,-2.277663 -8.205616,-2.157637 -8.631411,-2.064149 -1.169485,0.256778 -13.013359,3.396761 -13.226228,3.506471 -0.577052,0.297412 -0.861274,1.000843 -0.666741,1.650138 0.163273,0.544957 0.621448,0.903303 1.344174,1.051315 0.02309,0.0048 1.375185,-0.337232 3.004623,-0.759909 z M 10.357323,18.166154 c 0,-3.417037 0.03056,-4.736447 0.113956,-4.919475 0.25131,-0.551565 -0.5756954,-0.521951 14.575313,-0.521951 15.151008,0 14.324001,-0.02961 14.575311,0.521951 0.132426,0.290634 0.167987,9.588845 0.03667,9.588845 -0.0425,0 -3.279846,-0.837004 -7.194088,-1.860004 -3.914237,-1.023003 -7.246961,-1.860005 -7.406044,-1.860005 -0.159085,0 -3.490418,0.837002 -7.402966,1.860005 -3.912547,1.023 -7.155218,1.860004 -7.205938,1.860004 -0.05812,0 -0.09222,-1.726923 -0.09222,-4.66937 z M 20.755206,7.7408695 c 7.59e-4,-2.0217978 0.01145,-2.1449313 0.223345,-2.5999299 0.242951,-0.5217135 0.761806,-1.0326144 1.294941,-1.2750902 0.505256,-0.229793 5.040942,-0.229793 5.546199,0 0.533136,0.2424758 1.051992,0.7533767 1.29494,1.2750902 0.211883,0.4549986 0.222461,0.5781321 0.22335,2.5999299 l 7.6e-4,2.1223142 h -4.292269 -4.292319 l 0.001,-2.1223142 z"
       id="path13230" />
  </g>
</svg>
