<?xml version="1.0" encoding="UTF-8" standalone="no"?>
<!-- Created with Inkscape (http://www.inkscape.org/) -->

<svg
   version="1.1"
   id="svg13468"
   width="50"
   height="50"
   viewBox="0 0 50 50"
   sodipodi:docname="cargo-ship.svg"
   inkscape:version="1.1 (c68e22c387, 2021-05-23)"
   xmlns:inkscape="http://www.inkscape.org/namespaces/inkscape"
   xmlns:sodipodi="http://sodipodi.sourceforge.net/DTD/sodipodi-0.dtd"
   xmlns="http://www.w3.org/2000/svg"
   xmlns:svg="http://www.w3.org/2000/svg">
  <defs
     id="defs13472" />
  <sodipodi:namedview
     id="namedview13470"
     pagecolor="#ffffff"
     bordercolor="#666666"
     borderopacity="1.0"
     inkscape:pageshadow="2"
     inkscape:pageopacity="0.0"
     inkscape:pagecheckerboard="0"
     showgrid="false"
     width="50px"
     inkscape:zoom="10.860504"
     inkscape:cx="19.566311"
     inkscape:cy="26.195838"
     inkscape:window-width="1920"
     inkscape:window-height="1013"
     inkscape:window-x="1791"
     inkscape:window-y="-9"
     inkscape:window-maximized="1"
     inkscape:current-layer="g13474" />
  <g
     inkscape:groupmode="layer"
     inkscape:label="Image"
     id="g13474">
    <path
       style="fill:#000000;stroke-width:0.0923062"
       d="m 7.2782575,47.36441 c -0.2450787,-0.245072 -0.2524016,-0.690885 -0.015231,-0.928026 0.098698,-0.09871 0.3375456,-0.206937 0.5307562,-0.240517 0.1932184,-0.03358 0.6411609,-0.233201 0.9954449,-0.443603 0.627492,-0.372667 0.665668,-0.382552 1.4769022,-0.382552 0.813096,0 0.848018,0.0091 1.47891,0.386095 0.355376,0.212354 0.802634,0.414417 0.993915,0.449034 0.364676,0.066 0.713752,0.402437 0.713752,0.687925 0,0.08784 -0.08957,0.273589 -0.19905,0.412768 -0.185703,0.236091 -0.237279,0.250614 -0.769597,0.216717 -0.470757,-0.02997 -0.683129,-0.104351 -1.21417,-0.425215 -0.462688,-0.279555 -0.744305,-0.38888 -1.00176,-0.38888 -0.257447,0 -0.5390712,0.109325 -1.0017442,0.38888 -0.532603,0.321801 -0.742798,0.395202 -1.2185091,0.425492 -0.4908726,0.03125 -0.6033314,0.0082 -0.7695965,-0.158118 z m 14.8193915,0.0057 c -0.202672,-0.223952 -0.197626,-0.777696 0.0087,-0.96291 0.08885,-0.07973 0.327684,-0.17402 0.530756,-0.209537 0.20308,-0.03553 0.556663,-0.182412 0.785743,-0.326428 0.661983,-0.416155 1.060704,-0.547675 1.660381,-0.547675 0.599679,0 0.9984,0.13152 1.660383,0.547679 0.229087,0.144016 0.582671,0.290907 0.785743,0.326428 0.500664,0.08757 0.692298,0.279978 0.692298,0.695104 0,0.455404 -0.222887,0.646146 -0.75502,0.646146 -0.532664,0 -0.928839,-0.137656 -1.505256,-0.523025 -0.593362,-0.396691 -1.132118,-0.419651 -1.646436,-0.07017 -0.871379,0.592119 -1.889269,0.786932 -2.217369,0.424387 z m 14.215206,0 c -0.202673,-0.223952 -0.197634,-0.777696 0.0087,-0.96291 0.08885,-0.07973 0.3277,-0.17402 0.530765,-0.209537 0.203079,-0.03553 0.556663,-0.182412 0.785742,-0.326428 0.661984,-0.416155 1.060713,-0.547675 1.66039,-0.547675 0.599669,0 0.998391,0.13152 1.660382,0.547679 0.229079,0.144016 0.582663,0.290907 0.785743,0.326428 0.500664,0.08757 0.692291,0.279978 0.692291,0.695104 0,0.455404 -0.22288,0.646146 -0.755021,0.646146 -0.532664,0 -0.928831,-0.137656 -1.505255,-0.523025 -0.593362,-0.396691 -1.132118,-0.419651 -1.646437,-0.07017 -0.871378,0.592119 -1.889261,0.786932 -2.217361,0.424387 z M 1.644142,44.065006 c -0.4693888,-0.59673 -0.043541,-1.141382 0.8923931,-1.141382 0.7953498,0 1.8744079,-0.371096 2.5515606,-0.877508 0.1578192,-0.118022 0.1629191,-0.166333 0.055614,-0.526209 -0.078621,-0.263645 -0.1367813,-1.353915 -0.173765,-3.257763 L 4.9143307,35.400642 3.1835808,30.981369 C 2.2316731,28.550767 1.4528309,26.482367 1.4528309,26.384922 c 0,-0.09744 0.1019588,-0.279128 0.2265796,-0.40374 0.2173942,-0.217401 0.2753087,-0.226572 1.430749,-0.226572 h 1.2041782 v -1.111913 c 0,-1.057433 0.011077,-1.122968 0.2265713,-1.338445 0.2887546,-0.28876 0.642692,-0.28876 0.9314542,0 0.2154717,0.215477 0.2265714,0.281012 0.2265714,1.338445 v 1.111873 h 1.5692077 1.5692155 v -1.389181 c 0,-2.138003 0.07728,-2.210772 2.3476502,-2.210772 2.292445,0 2.35998,0.06326 2.35998,2.210772 0,1.360502 0.0039,1.389181 0.198712,1.389181 0.168788,0 1.2446,0.40037 2.593559,0.965215 l 0.346153,0.144941 V 22.202011 17.539292 H 11.19117 5.6989346 v 1.835905 c 0,2.04327 -0.034076,2.169219 -0.6169541,2.281772 -0.2380942,0.04597 -0.3397686,0.01085 -0.5356638,-0.185042 l -0.2417864,-0.241788 0.027999,-2.069683 c 0.025999,-1.922288 0.041537,-2.087817 0.2183023,-2.324329 0.4037364,-0.540208 0.6281,-0.632804 1.6161605,-0.667005 l 0.9165622,-0.03173 v -3.779594 c 0,-4.2828962 -0.00231,-4.267884 0.7184208,-4.6729538 C 8.1293823,7.5008296 8.2993318,7.4778791 9.3345528,7.4778791 H 10.498894 V 6.5086643 5.5394457 h -0.451305 c -0.5776322,0 -0.8717552,-0.2180792 -0.8717552,-0.6463703 0,-0.4375662 0.371775,-0.7382273 0.9128312,-0.7382273 h 0.410229 V 3.567304 c 0,-0.7316537 0.217671,-1.0739738 0.682914,-1.0739738 0.49638,0 0.70169,0.3055825 0.70169,1.0443977 v 0.6171202 h 0.364876 c 0.719244,0 1.135756,0.4212412 0.936,0.946633 -0.120565,0.3171007 -0.36326,0.4379646 -0.879432,0.4379646 h -0.421443 v 0.9622419 0.9622407 l 1.269215,0.030054 c 1.137695,0.026939 1.299114,0.051385 1.557823,0.2359253 0.585563,0.4176808 0.588301,0.4392145 0.588301,4.6224444 v 3.785044 l 0.916563,0.03172 c 0.98816,0.03421 1.212615,0.126867 1.616161,0.667182 0.185564,0.248461 0.191471,0.384083 0.23647,5.433772 l 0.04615,5.17895 0.923062,0.392393 c 0.507687,0.215815 0.954222,0.395326 0.992291,0.398911 0.03807,0.0036 0.06923,-3.42036 0.06923,-7.608769 0,-4.188407 -0.03346,-7.615287 -0.07438,-7.615287 -0.04092,0 -0.434905,0.145383 -0.87557,0.323073 -0.440667,0.177689 -0.858518,0.323073 -0.928555,0.323073 -0.277155,0 -0.613778,-0.375519 -0.613778,-0.684693 0,-0.419064 0.207588,-0.575546 1.412651,-1.064866 L 20.0526,11.493211 20.09875,8.4470955 c 0.05092,-3.3599851 0.039,-3.2937937 0.653498,-3.6391461 0.769374,-0.4324155 1.131919,-0.2451178 2.730465,1.4105994 1.430426,1.4815947 1.600591,1.7704772 1.600591,2.7172888 0,0.4341299 0.02185,0.4957737 0.161534,0.4559003 0.142204,-0.040589 5.734176,-2.2941859 11.82905,-4.7671793 1.137202,-0.4614188 2.165262,-0.8389426 2.284589,-0.8389426 0.489404,0 0.780689,0.739745 0.439667,1.1165651 -0.08058,0.089037 -0.579025,0.3357194 -1.107665,0.548185 l -0.961182,0.3863031 v 2.3436623 2.3436625 h 1.736419 c 1.619884,0 1.749972,0.01263 1.938437,0.188209 0.198679,0.185098 0.202018,0.231628 0.202018,2.815349 0,2.504064 -0.0086,2.635788 -0.184611,2.811752 -0.170765,0.170768 -0.307692,0.184614 -1.825594,0.184614 -1.905884,0 -2.05128,-0.04569 -2.05128,-0.64468 0,-0.276046 0.05531,-0.400797 0.243217,-0.548606 0.216272,-0.170117 0.36966,-0.191313 1.384597,-0.191313 h 1.14138 v -1.61536 -1.615364 h -3.276881 -3.276874 v 1.606963 1.606961 l 0.959769,0.03148 c 0.785465,0.02576 0.995021,0.06341 1.153833,0.207321 0.253286,0.229514 0.258109,0.72932 0.0094,0.977988 -0.168728,0.168733 -0.307686,0.184613 -1.615361,0.184613 -1.307676,0 -1.446634,-0.01589 -1.615368,-0.184613 -0.175958,-0.175964 -0.184611,-0.307688 -0.184611,-2.811753 0,-2.583721 0.0031,-2.63025 0.202018,-2.815348 0.188465,-0.175578 0.318554,-0.188209 1.938437,-0.188209 h 1.736419 V 8.493254 c 0,-1.116909 -0.03116,-2.0309262 -0.06923,-2.0311501 -0.03807,-2.185e-4 -2.570944,1.0070704 -5.628585,2.2384325 l -5.559356,2.2388406 -0.0023,6.484532 -0.0023,6.484534 h 2.58459 2.584576 v -2.0264 c 0,-2.280493 0.03484,-2.446088 0.545964,-2.594259 0.220932,-0.06404 2.964896,-0.08678 8.254413,-0.06838 l 7.923459,0.02756 0.176435,0.217915 c 0.168226,0.207769 0.176442,0.423729 0.176442,4.638402 v 4.420488 h 0.465727 c 0.371398,0 0.51161,0.04588 0.692291,0.226572 0.43688,0.436878 0.354645,0.58219 -1.27397,2.251095 -2.454371,2.515078 -3.878674,4.584056 -4.865004,7.066999 -0.255593,0.64341 -0.692875,2.17879 -0.631361,2.216805 0.01523,0.0094 0.276993,0.09266 0.581609,0.184941 0.759328,0.230024 1.107388,0.418114 2.395088,1.294306 1.224116,0.83292 1.735603,1.050838 2.63562,1.122877 0.839425,0.06719 0.994806,0.107963 1.202332,0.315489 0.235079,0.235081 0.231709,0.556046 -0.0091,0.862116 -0.173005,0.219943 -0.251087,0.243215 -0.815988,0.243215 -0.745621,0 -1.833487,-0.262357 -2.514569,-0.606435 -0.27141,-0.13711 -0.873695,-0.513983 -1.338422,-0.837496 -1.136726,-0.791314 -1.860309,-1.116539 -2.770524,-1.245261 -1.471864,-0.208148 -2.573138,0.117593 -4.195105,1.240852 -1.659591,1.149309 -2.514139,1.443841 -4.197574,1.446737 -1.10185,0.0019 -2.133518,-0.230363 -2.870323,-0.64619 -0.270708,-0.152775 -0.946392,-0.586837 -1.501532,-0.964582 -1.270746,-0.864679 -1.969414,-1.102855 -3.235128,-1.102855 -1.2657,0 -1.964376,0.238176 -3.235114,1.102855 -0.55514,0.377745 -1.230831,0.811807 -1.501532,0.964582 -0.724413,0.408831 -1.77008,0.647793 -2.834654,0.647793 -1.681597,0 -2.369965,-0.22904 -4.093161,-1.361917 -1.448534,-0.952312 -1.992805,-1.200491 -2.920444,-1.331678 -1.4433652,-0.204116 -2.5203769,0.120618 -4.251573,1.281903 -0.5297947,0.355388 -1.1431644,0.737886 -1.3630436,0.849998 -0.5915317,0.301619 -1.7137196,0.561694 -2.4236407,0.561694 -0.5649095,0 -0.6429839,-0.02326 -0.8159955,-0.243215 z M 19.21815,42.648913 c 0.302585,-0.118047 0.996714,-0.5185 1.542524,-0.889892 1.858416,-1.264565 2.631474,-1.53997 4.322632,-1.53997 1.691159,0 2.464217,0.275405 4.322633,1.53997 1.473772,1.00283 1.816748,1.117409 3.338803,1.11541 1.533624,-0.002 1.800671,-0.09878 3.621488,-1.312345 1.361728,-0.907585 1.982837,-1.166388 3.154993,-1.314612 0.401712,-0.0508 0.747189,-0.109157 0.767719,-0.129682 0.04546,-0.04546 0.293977,-1.071438 0.298578,-1.232618 0.0023,-0.0907 -0.913609,-0.115382 -4.282273,-0.115382 H 32.019698 L 31.82838,38.526577 c -0.105221,-0.13377 -0.191311,-0.315089 -0.191311,-0.402932 0,-0.08784 0.0861,-0.269166 0.191311,-0.402931 l 0.191318,-0.243215 h 4.516897 4.516897 l 0.525356,-1.084602 c 0.288955,-0.596531 0.54138,-1.115755 0.560956,-1.153831 0.01953,-0.03807 -8.051841,-0.06923 -17.936483,-0.06923 H 6.2312447 l 0.05569,0.207689 c 0.030615,0.11423 0.05623,0.633454 0.056921,1.153832 l 0.00154,0.946141 H 18.114485 c 11.646006,0 11.771012,0.0019 11.953692,0.184614 0.102566,0.102561 0.184618,0.307689 0.184618,0.461533 0,0.153844 -0.08205,0.358968 -0.184618,0.461532 -0.18268,0.182681 -0.307686,0.184615 -11.953692,0.184615 H 6.3453957 v 0.865372 c 0,0.475954 0.025077,0.990962 0.055845,1.144461 l 0.055845,0.279084 0.5672477,-0.264434 c 0.9064932,-0.422575 1.6504524,-0.576788 2.7826084,-0.576788 1.6324602,0 2.5859842,0.32829 4.1076392,1.41422 0.845171,0.603155 1.699396,1.051924 2.272444,1.193828 0.197064,0.0488 0.83598,0.07731 1.419819,0.06337 0.849841,-0.0203 1.171233,-0.06815 1.611668,-0.239986 z m 24.273329,-9.458711 c 0.540656,-0.757664 1.752734,-2.190423 2.304551,-2.724142 0.234002,-0.226335 0.425467,-0.44441 0.425467,-0.484608 0,-0.0402 -5.767574,-0.07309 -12.816833,-0.07309 -9.447861,0 -12.899307,-0.02802 -13.130601,-0.106604 -0.172573,-0.05863 -1.716312,-0.681701 -3.430516,-1.384598 L 13.726792,27.139165 H 8.4667288 c -2.8930373,0 -5.2600717,0.02899 -5.2600717,0.06441 0,0.03543 0.5694861,1.530797 1.2655306,3.323036 l 1.2655306,3.258618 H 24.402292 43.066873 Z m -5.733068,-0.605593 c -0.427112,-0.172086 -0.528063,-0.76837 -0.184703,-1.090944 0.188995,-0.177546 0.316793,-0.200703 1.107681,-0.200703 1.033898,0 1.263269,0.124484 1.263269,0.6856 0,0.520092 -0.321199,0.700288 -1.235508,0.693147 -0.412005,-0.0032 -0.839833,-0.04241 -0.950739,-0.0871 z M 23.698709,18.50501 V 8.4862542 l -1.019997,-1.10159 C 22.11771,6.7787894 21.619253,6.2586889 21.571031,6.228885 c -0.05515,-0.034107 -0.08768,4.087286 -0.08768,11.120347 V 28.52377 h 1.10768 1.10768 z m 6.553763,8.403394 V 25.29304 h -2.584583 -2.584583 v 1.615364 1.615365 h 2.584583 2.584583 z m 7.846054,0 V 25.29304 h -3.230729 -3.230728 v 1.615364 1.615365 h 3.230728 3.230729 z m 7.846054,0 V 25.29304 h -3.230728 -3.230736 v 1.615364 1.615365 h 3.230736 3.230728 z M 12.252697,24.646895 v -1.107679 h -1.015375 -1.015367 v 1.107679 1.107678 h 1.015367 1.015375 z m 25.845829,-2.39997 v -1.661518 h -3.230729 -3.230728 v 1.661518 1.661518 h 3.230728 3.230729 z m 7.846054,0 v -1.661518 h -3.230728 -3.230736 v 1.661518 1.661518 h 3.230736 3.230728 z M 13.914219,12.508588 V 8.8624804 H 11.19117 8.4681288 v 3.6461076 3.646107 h 2.7230412 2.723049 z m -3.101533,2.006253 c -0.198956,-0.132849 -0.313815,-0.477931 -0.313815,-0.942855 0,-0.377845 0.04508,-0.516916 0.226571,-0.698368 0.124613,-0.124613 0.334192,-0.22657 0.465728,-0.22657 0.131542,0 0.341114,0.101957 0.465727,0.22657 0.306407,0.306402 0.329053,1.197829 0.03838,1.509848 -0.187979,0.201772 -0.669744,0.273485 -0.882578,0.131375 z m 0.08452,-2.697209 c -0.284068,-0.117257 -0.398335,-0.378508 -0.398335,-0.91079 0,-0.597019 0.05715,-0.729158 0.389899,-0.901216 0.226424,-0.1170922 0.323238,-0.1224238 0.546178,-0.03008 0.357161,0.1479432 0.44852,0.3409452 0.44852,0.9475362 0,0.738406 -0.426766,1.12549 -0.986261,0.894551 z m -3.7039666,8.856487 c -0.1675498,-0.156102 -0.2020181,-0.28995 -0.2020181,-0.784606 0,-0.690695 0.1839723,-0.965623 0.6461457,-0.965623 0.462181,0 0.6461458,0.274928 0.6461458,0.965623 0,0.494656 -0.03446,0.628504 -0.2020182,0.784606 -0.1111127,0.103515 -0.3109694,0.188209 -0.4441276,0.188209 -0.1331583,0 -0.333015,-0.08469 -0.4441276,-0.188209 z m 3.5321986,-0.03836 c -0.184714,-0.184722 -0.226567,-0.318816 -0.226567,-0.726004 0,-0.6442 0.239925,-0.985862 0.692299,-0.985862 0.452381,0 0.692298,0.341662 0.692298,0.985862 0,0.407188 -0.04185,0.541282 -0.226571,0.726004 -0.124613,0.124614 -0.334185,0.226571 -0.465727,0.226571 -0.131536,0 -0.341115,-0.101957 -0.465728,-0.226571 z m 3.575405,0.03836 c -0.283639,-0.264248 -0.295024,-1.288002 -0.01738,-1.565615 0.419828,-0.419835 1.061282,-0.141617 1.157833,0.502186 0.146404,0.976302 -0.543463,1.619589 -1.140433,1.063429 z"
       id="path13496" />
  </g>
</svg>
