<?xml version="1.0" encoding="UTF-8" standalone="no"?>
<svg
   xmlns:dc="http://purl.org/dc/elements/1.1/"
   xmlns:cc="http://creativecommons.org/ns#"
   xmlns:rdf="http://www.w3.org/1999/02/22-rdf-syntax-ns#"
   xmlns:svg="http://www.w3.org/2000/svg"
   xmlns="http://www.w3.org/2000/svg"
   xmlns:sodipodi="http://sodipodi.sourceforge.net/DTD/sodipodi-0.dtd"
   xmlns:inkscape="http://www.inkscape.org/namespaces/inkscape"
   viewBox="0 0 100 80"
   width="40"
   height="40"
   version="1.1"
   id="svg8"
   sodipodi:docname="iconHome.svg"
   inkscape:version="1.0.2 (e86c870879, 2021-01-15)">
  <metadata
     id="metadata14">
    <rdf:RDF>
      <cc:Work
         rdf:about="">
        <dc:format>image/svg+xml</dc:format>
        <dc:type
           rdf:resource="http://purl.org/dc/dcmitype/StillImage" />
        <dc:title />
      </cc:Work>
    </rdf:RDF>
  </metadata>
  <defs
     id="defs12" />
  <sodipodi:namedview
     pagecolor="#ffffff"
     bordercolor="#666666"
     borderopacity="1"
     objecttolerance="10"
     gridtolerance="10"
     guidetolerance="10"
     inkscape:pageopacity="0"
     inkscape:pageshadow="2"
     inkscape:window-width="1883"
     inkscape:window-height="1136"
     id="namedview10"
     showgrid="false"
     inkscape:zoom="19.688479"
     inkscape:cx="12.115231"
     inkscape:cy="27.203718"
     inkscape:window-x="37"
     inkscape:window-y="27"
     inkscape:window-maximized="1"
     inkscape:current-layer="svg8"
     inkscape:document-rotation="0" />
  <g
     id="g863"
     transform="matrix(0.09539621,0,0,0.09539621,50.40326,29.717788)">
    <path
       style="fill:#d0d0d0;stroke-width:2.5"
       d="m -454.77127,104.70605 c 3.22936,-3.4375 6.43407,-6.25 7.12157,-6.25 0.6875,0 -1.39221,2.8125 -4.62157,6.25 -3.22936,3.4375 -6.43407,6.25 -7.12157,6.25 -0.6875,0 1.39221,-2.8125 4.62157,-6.25 z m 898.59272,-1.875 -7.34272,-8.125 8.125,7.34273 c 7.57365,6.84445 9.27412,8.90727 7.34272,8.90727 -0.43024,0 -4.08649,-3.65625 -8.125,-8.125 z m -868.59272,-25.625 c 3.22936,-3.4375 6.43407,-6.25 7.12157,-6.25 0.6875,0 -1.39221,2.8125 -4.62157,6.25 -3.22936,3.4375 -6.43407,6.25 -7.12157,6.25 -0.6875,0 1.39221,-2.8125 4.62157,-6.25 z m 839.81077,-0.625 -6.06077,-6.875 6.875,6.060775 c 6.42573,5.664725 8.02147,7.689225 6.06077,7.689225 -0.4478,0 -3.54155,-3.09375 -6.875,-6.875 z m -807.31077,-29.375 c 3.22936,-3.4375 6.43407,-6.25 7.12157,-6.25 0.6875,0 -1.39221,2.8125 -4.62157,6.25 -3.22936,3.4375 -6.43407,6.25 -7.12157,6.25 -0.6875,0 1.39221,-2.8125 4.62157,-6.25 z m 774.81077,-0.625 -6.06077,-6.875 6.875,6.060775 c 6.42573,5.664725 8.02147,7.689225 6.06077,7.689225 -0.4478,0 -3.54155,-3.09375 -6.875,-6.875 z m -819.81077,-1.407275 c 0,-0.43025 3.65625,-4.0865 8.125,-8.125 l 8.125,-7.342725 -7.34273,8.125 c -6.84445,7.57365 -8.90727,9.274125 -8.90727,7.342725 z m 75,-25.467725 c 3.22936,-3.4375 6.43407,-6.25 7.12157,-6.25 0.6875,0 -1.39221,2.8125 -4.62157,6.25 -3.22936,3.4375 -6.43407,6.25 -7.12157,6.25 -0.6875,0 1.39221,-2.8125 4.62157,-6.25 z m 714.81077,-0.625 -6.06077,-6.875 6.875,6.060775 c 6.42573,5.664725 8.02147,7.689225 6.06077,7.689225 -0.4478,0 -3.54155,-3.09375 -6.875,-6.875 z m 42.68923,-4.375 c -6.07258,-6.1875 -10.47855,-11.25 -9.79105,-11.25 0.6875,0 6.21847,5.0625 12.29105,11.25 6.07258,6.1875 10.47855,11.25 9.79105,11.25 -0.6875,0 -6.21847,-5.0625 -12.29105,-11.25 z m -798.75,-1.25 c 5.37061,-5.5 10.32724,-10 11.01474,-10 0.6875,0 -3.14413,4.5 -8.51474,10 -5.37061,5.5 -10.32724,10 -11.01474,10 -0.6875,0 3.14413,-4.5 8.51474,-10 z m 66.25,-15.782275 c 0,-0.43025 3.65625,-4.0865 8.125,-8.125 l 8.125,-7.342725 -7.34273,8.125 c -6.84445,7.57365 -8.90727,9.274125 -8.90727,7.342725 z m 658.59272,-7.342725 -7.34272,-8.125 8.125,7.342725 c 7.57365,6.84445 9.27412,8.907275 7.34272,8.907275 -0.43024,0 -4.08649,-3.65625 -8.125,-8.125 z m -694.84272,-4.375 c 5.37061,-5.5 10.32724,-10 11.01474,-10 0.6875,0 -3.14413,4.5 -8.51474,10 -5.37061,5.5 -10.32724,10 -11.01474,10 -0.6875,0 3.14413,-4.5 8.51474,-10 z m 737.38237,-0.625 -9.88237,-10.625 10.625,9.882375 c 9.88115,9.1905 11.77382,11.367625 9.88237,11.367625 -0.40845,0 -5.1897,-4.78125 -10.625,-10.625 z m -668.63237,-18.125 c 3.22936,-3.4375 6.43407,-6.25 7.12157,-6.25 0.6875,0 -1.39221,2.8125 -4.62157,6.25 -3.22936,3.4375 -6.43407,6.25 -7.12157,6.25 -0.6875,0 1.39221,-2.8125 4.62157,-6.25 z m -40,-7.5 c 3.22936,-3.4375 6.43407,-6.25 7.12157,-6.25 0.6875,0 -1.39221,2.8125 -4.62157,6.25 -3.22936,3.4375 -6.43407,6.25 -7.12157,6.25 -0.6875,0 1.39221,-2.8125 4.62157,-6.25 z m 679.81077,-0.625 -6.06077,-6.875 6.875,6.060775 c 6.42573,5.664725 8.02147,7.689225 6.06077,7.689225 -0.4478,0 -3.54155,-3.09375 -6.875,-6.875 z m -8.6794,-99.375 c 7.8e-4,-50.875 0.33413,-71.33267 0.74078,-45.46149 0.40665,25.87118 0.40603,67.49618 -0.001,92.49999 -0.40743,25.003825 -0.74015,3.8365 -0.73938,-47.0385 z m -638.63137,70 c 3.22936,-3.4375 6.43407,-6.25 7.12157,-6.25 0.6875,0 -1.39221,2.8125 -4.62157,6.25 -3.22936,3.4375 -6.43407,6.25 -7.12157,6.25 -0.6875,0 1.39221,-2.8125 4.62157,-6.25 z m 30,-27.5 c 3.22936,-3.4375 6.43407,-6.25 7.12157,-6.25 0.6875,0 -1.39221,2.8125 -4.62157,6.25 -3.22936,3.4375 -6.43407,6.25 -7.12157,6.25 -0.6875,0 1.39221,-2.8125 4.62157,-6.25 z m 97.39553,-44.375 c 6.13002,-6.53125 11.47377,-11.875 11.875,-11.875 1.8772,0 -0.1075,2.24457 -11.14553,12.60448 l -11.875,11.14552 z m 31.35447,-29.375 c 5.3706,-5.5 10.32725,-10 11.01475,-10 0.6875,0 -3.14415,4.5 -8.51475,10 -5.3706,5.5 -10.32725,10 -11.01475,10 -0.6875,0 3.14415,-4.5 8.51475,-10 z m 28.75,-26.25 c 3.22937,-3.4375 6.43407,-6.25 7.12157,-6.25 0.68751,0 -1.3922,2.8125 -4.62157,6.25 -3.22938,3.4375 -6.43408,6.25 -7.12158,6.25 -0.6875,0 1.3922,-2.8125 4.62158,-6.25 z m 239.81077,-0.625 -6.06077,-6.875 6.875,6.06079 c 3.78125,3.33343 6.875,6.42718 6.875,6.875 0,1.96068 -2.0245,0.36493 -7.68923,-6.06079 z m -277.31077,-9.375 c 3.22938,-3.4375 6.43408,-6.25 7.12158,-6.25 0.6875,0 -1.3922,2.8125 -4.62158,6.25 -3.22938,3.4375 -6.43408,6.25 -7.12158,6.25 -0.6875,0 1.3922,-2.8125 4.62158,-6.25 z m 28.75,-26.25 c 5.3706,-5.5 10.32725,-10 11.01475,-10 0.6875,0 -3.14415,4.5 -8.51475,10 -5.3706,5.5 -10.32725,10 -11.01475,10 -0.6875,0 3.14415,-4.5 8.51475,-10 z m 253.56077,-4.375 -6.06077,-6.875 6.875,6.06079 c 3.78125,3.33343 6.875,6.42718 6.875,6.875 0,1.96068 -2.0245,0.36493 -7.68923,-6.06079 z m 206.1244,-21.875 c 0.005,-15.125 0.4174,-20.99017 0.91503,-13.03372 0.49762,7.95646 0.493,20.33146 -0.01,27.5 -0.50353,7.16855 -0.91068,0.65872 -0.90503,-14.46628 z m -429.68517,-1.25 c 5.3706,-5.5 10.32725,-10 11.01475,-10 0.6875,0 -3.14415,4.5 -8.51475,10 -5.3706,5.5 -10.32725,10 -11.01475,10 -0.6875,0 3.14415,-4.5 8.51475,-10 z m 197.382375,-0.625 -9.882375,-10.625 10.625,9.88237 c 9.88115,9.19051 11.77382,11.36763 9.88237,11.36763 -0.40845,0 -5.189695,-4.78125 -10.624995,-10.625 z m -102.51825,-41.27024 c 4.407125,-5.29634 4.981375,-5.38827 9.29165,-1.48753 2.526825,2.28674 4.594225,4.72021 4.594225,5.40771 0,0.6875 -2.031925,-0.58887 -4.515375,-2.83637 -4.183675,-3.78617 -4.866275,-3.76872 -9.291675,0.23752 -4.69275,4.2483 -4.694125,4.2252 -0.07875,-1.32133 z m 190.599625,0.025 c 23.63005,-0.41052 63.00505,-0.41122 87.5,-0.002 24.49493,0.40967 5.16125,0.74554 -42.96375,0.7464 -48.125,8.6e-4 -68.16632,-0.33432 -44.53625,-0.74484 z"
       id="path877" />
    <path
       style="fill:#adadad;stroke-width:2.5"
       d="m -181.84182,526.58137 c 97.173675,-0.3623 256.923675,-0.36237 355,-1.2e-4 98.0763,0.36225 18.57055,0.6587 -176.67945,0.65875 -195.25,8e-5 -275.49425,-0.2963 -178.32055,-0.65863 z M -427.89627,124.09135 c 14.09375,-0.44562 37.15625,-0.44562 51.25,0 14.09375,0.44562 2.5625,0.81023 -25.625,0.81023 -28.1875,0 -39.71875,-0.3646 -25.625,-0.81023 z m 797.5,0 c 14.09375,-0.44562 37.15625,-0.44562 51.25,0 14.09375,0.44562 2.5625,0.81023 -25.625,0.81023 -28.1875,0 -39.71875,-0.3646 -25.625,-0.81023 z m -814.375,-71.8853 c 3.22936,-3.4375 6.43407,-6.25 7.12157,-6.25 0.6875,0 -1.39221,2.8125 -4.62157,6.25 -3.22936,3.4375 -6.43407,6.25 -7.12157,6.25 -0.6875,0 1.39221,-2.8125 4.62157,-6.25 z m 879.81077,-0.625 -6.06077,-6.875 6.875,6.060775 c 3.78125,3.33345 6.875,6.4272 6.875,6.875 0,1.9607 -2.0245,0.36495 -7.68923,-6.060775 z m -732.31077,-91.407275 c 0,-0.43025 3.65625,-4.0865 8.125,-8.125 l 8.125,-7.342725 -7.34273,8.125 c -6.84445,7.57365 -8.90727,9.274125 -8.90727,7.342725 z m 60,-55 c 0,-0.43025 3.65625,-4.0865 8.125,-8.124995 l 8.125,-7.34273 -7.34272,8.125 c -6.84446,7.57365 -8.90728,9.274125 -8.90728,7.342725 z m 2.5,-45.467725 c 3.22938,-3.4375 6.43408,-6.25 7.12158,-6.25 0.6875,0 -1.3922,2.8125 -4.62158,6.25 -3.22938,3.4375 -6.43408,6.25 -7.12158,6.25 -0.6875,0 1.3922,-2.8125 4.62158,-6.25 z m 393.64897,-91.87218 0.10103,-38.12782 66.25,-0.0613 66.25,-0.0612 -65.5601,0.72696 -65.5601,0.72696 -0.79095,37.46211 -0.79092,37.46211 0.10099,-38.12782 z"
       id="path875" />
    <path
       style="fill:#8b8b8b;stroke-width:2.5"
       d="m -368.58562,335.95605 c 0,-99.6875 0.30977,-140.46875 0.68836,-90.625 0.3786,49.84375 0.3786,131.40625 0,181.25 -0.3786,49.84375 -0.68836,9.0625 -0.68836,-90.625 z m 730,0 c 0,-99.6875 0.30978,-140.46875 0.68835,-90.625 0.3786,49.84375 0.3786,131.40625 0,181.25 -0.37857,49.84375 -0.68835,9.0625 -0.68835,-90.625 z m -67.53335,-491.25 c 5.2e-4,-63.25 0.3249,-88.7666 0.72082,-56.70356 0.39593,32.06304 0.3955,83.81304 -9.5e-4,115.00001 -0.39647,31.18695 -0.72039,4.95355 -0.71987,-58.29645 z"
       id="path873" />
    <path
       style="fill:#737373;stroke-width:2.5"
       d="m -338.79992,464.70605 c 0.004,-17.875 0.40258,-24.85947 0.88489,-15.52103 0.48233,9.33843 0.47875,23.96343 -0.008,32.5 -0.48665,8.53656 -0.88127,0.89603 -0.8769,-16.97897 z m 670.01505,-2.5 c 0.005,-19.25 0.39632,-26.79453 0.87207,-16.76563 0.47575,10.0289 0.47255,25.7789 -0.007,35 -0.47922,9.2211 -0.86847,1.01563 -0.86457,-18.23437 z m -669.83043,-152.5 c 4.9e-4,-66 0.32327,-92.64098 0.7173,-59.20218 0.39402,33.43883 0.39362,87.43883 -8.9e-4,120 -0.39451,32.5612 -0.7169,5.20218 -0.71641,-60.79782 z m 669.9982,-2.5 c -5.2e-4,-64.625 0.32263,-91.42123 0.7181,-59.54715 0.39548,31.87407 0.39588,84.74908 9.3e-4,117.5 -0.39498,32.75093 -0.71853,6.67215 -0.71903,-57.95285 z m -0.241,-142.5 c 0.007,-13.75 0.42633,-19.05605 0.93293,-11.7912 0.50662,7.26485 0.5013,18.51485 -0.0125,25 -0.51313,6.48515 -0.9276,0.5412 -0.9211,-13.2088 z m -669.99999,-2.5 c 0.007,-13.75 0.42633,-19.05605 0.93293,-11.7912 0.5066,7.26485 0.50128,18.51485 -0.0118,25 -0.5133,6.48515 -0.92779,0.5412 -0.92128,-13.2088 z m 662.7428,-332.5 c 4.7e-4,-66 0.32327,-92.64098 0.7173,-59.20217 0.39402,33.43881 0.39362,87.43881 -9e-4,120 -0.3945,32.561195 -0.71691,5.20217 -0.7164,-60.79783 z m -603.65598,112.967725 c 0,-0.43025 3.65625,-4.0865 8.125,-8.125 l 8.125,-7.342725 -7.34273,8.125 c -6.84445,7.57365 -8.90727,9.274125 -8.90727,7.342725 z"
       id="path871" />
    <path
       style="fill:#505050;stroke-width:2.5"
       d="m -260.39627,496.58238 c 42.96875,-0.38365 113.28125,-0.38365 156.25,0 42.96875,0.38365 7.8125,0.69752 -78.125,0.69752 -85.9375,0 -121.09375,-0.31387 -78.125,-0.69752 z m 247.5,0.0305 c 7.21875,-0.505 19.03125,-0.505 26.25,0 7.21875,0.505 1.3125,0.9182 -13.125,0.9182 -14.4375,0 -20.34375,-0.4132 -13.125,-0.9182 z m 116.42985,-0.0308 c 42.38015,-0.38438 111.00515,-0.38413 152.5,5.7e-4 41.49482,0.38468 6.82015,0.69918 -77.05485,0.69887 -83.875,-3.2e-4 -117.825325,-0.31507 -75.44515,-0.69944 z m -538.92985,-342.486 c 11.34375,-0.46323 29.90625,-0.46323 41.25,0 11.34375,0.46325 2.0625,0.84225 -20.625,0.84225 -22.6875,0 -31.96875,-0.379 -20.625,-0.84225 z m 825.1187,-0.002 c 11.40905,-0.4643 29.40905,-0.4617 40,0.005 10.59097,0.46746 1.2563,0.84733 -20.7437,0.84416 -22,-0.002 -30.66532,-0.38563 -19.2563,-0.8499 z M -362.27127,17.20605 c 3.22936,-3.4375 6.43407,-6.25 7.12157,-6.25 0.6875,0 -1.39221,2.8125 -4.62157,6.25 -3.22936,3.4375 -6.43407,6.25 -7.12157,6.25 -0.6875,0 1.39221,-2.8125 4.62157,-6.25 z m 714.81077,-0.625 -6.06077,-6.875 6.875,6.060775 c 6.42573,5.664725 8.02147,7.689225 6.06077,7.689225 -0.4478,0 -3.54155,-3.09375 -6.875,-6.875 z M 123.87463,-231.71239 c -1.23665,-2.00095 -0.8927,-2.47016 0.96783,-1.32029 2.10875,1.30328 3.03022,-6.16915 3.42067,-27.73873 l 0.53438,-29.52254 0.80137,28.53925 c 0.75367,26.84165 -1.23898,37.29965 -5.72425,30.04231 z m -68.835125,-24.20656 -6.060775,-6.875 6.875,6.06079 c 3.78125,3.33343 6.875,6.42718 6.875,6.875 0,1.96068 -2.0245,0.36493 -7.689225,-6.06079 z"
       id="path869" />
    <path
       style="fill:#313131;stroke-width:2.5"
       d="m 467.72873,144.05743 c 0,-1.04425 2.53125,-3.45363 5.625,-5.35415 5.60502,-3.44323 5.60807,-3.43648 0.86252,1.89864 -5.0952,5.7282 -6.48752,6.46981 -6.48752,3.45551 z m -882.5,-79.35138 c 3.22936,-3.4375 6.43407,-6.25 7.12157,-6.25 0.6875,0 -1.39221,2.8125 -4.62157,6.25 -3.22936,3.4375 -6.43407,6.25 -7.12157,6.25 -0.6875,0 1.39221,-2.8125 4.62157,-6.25 z m 819.81077,-0.625 -6.06077,-6.875 6.875,6.060775 c 6.42573,5.664725 8.02147,7.689225 6.06077,7.689225 -0.4478,0 -3.54155,-3.09375 -6.875,-6.875 z m -787.31077,-29.375 c 3.22936,-3.4375 6.43407,-6.25 7.12157,-6.25 0.6875,0 -1.39221,2.8125 -4.62157,6.25 -3.22936,3.4375 -6.43407,6.25 -7.12157,6.25 -0.6875,0 1.39221,-2.8125 4.62157,-6.25 z m 754.81077,-0.625 -6.06077,-6.875 6.875,6.060775 c 6.42573,5.664725 8.02147,7.689225 6.06077,7.689225 -0.4478,0 -3.54155,-3.09375 -6.875,-6.875 z M -389.77127,5.173775 c 0,-0.43025 3.65625,-4.0865 8.125,-8.125 l 8.125,-7.342725 -7.34273,8.125 c -6.84445,7.57365 -8.90727,9.274125 -8.90727,7.342725 z m 763.59272,-7.342725 -7.34272,-8.125 8.125,7.342725 c 7.57365,6.84445 9.27412,8.907275 7.34272,8.907275 -0.43024,0 -4.08649,-3.65625 -8.125,-8.125 z m -698.59272,-15.625 c 3.22936,-3.4375 6.43407,-6.25 7.12157,-6.25 0.6875,0 -1.39221,2.8125 -4.62157,6.25 -3.22936,3.4375 -6.43407,6.25 -7.12157,6.25 -0.6875,0 1.39221,-2.8125 4.62157,-6.25 z m 639.81077,-0.625 -6.06077,-6.875 6.875,6.060775 c 6.42573,5.664725 8.02147,7.689225 6.06077,7.689225 -0.4478,0 -3.54155,-3.09375 -6.875,-6.875 z m -674.81077,-3.907275 c 0,-0.43025 3.65625,-4.0865 8.125,-8.125 l 8.125,-7.342725 -7.34273,8.125 c -6.84445,7.57365 -8.90727,9.274125 -8.90727,7.342725 z m 704.81077,-6.092725 -6.06077,-6.875 6.875,6.060775 c 3.78125,3.33345 6.875,6.4272 6.875,6.875 0,1.9607 -2.0245,0.36495 -7.68923,-6.060775 z m -577.31077,-111.875 c 3.22938,-3.4375 6.43408,-6.25 7.12158,-6.25 0.6875,0 -1.3922,2.8125 -4.62158,6.25 -3.22938,3.4375 -6.43408,6.25 -7.12158,6.25 -0.6875,0 1.3922,-2.8125 4.62158,-6.25 z m 388.4864,-85 c 0.005,-19.25 0.39632,-26.79453 0.87208,-16.76562 0.47575,10.0289 0.47255,25.7789 -0.007,35 -0.47923,9.22109 -0.86848,1.01562 -0.86458,-18.23438 z m -271.09087,-21.875 c 10.35989,-11.03797 12.60447,-13.02273 12.60447,-11.14552 0,0.40122 -5.34375,5.74497 -11.875,11.875 l -11.875,11.14552 z m 220.10447,-0.625 c -6.072575,-6.1875 -10.47855,-11.25 -9.79105,-11.25 0.6875,0 6.21848,5.0625 12.29105,11.25 6.07258,6.1875 10.47855,11.25 9.79105,11.25 -0.6875,0 -6.21848,-5.0625 -12.29105,-11.25 z m -157.5,-20 c 3.229375,-3.4375 6.434075,-6.25 7.121575,-6.25 0.6875,0 -1.3922,2.8125 -4.621575,6.25 -3.229375,3.4375 -6.434075,6.25 -7.121575,6.25 -0.6875,0 1.3922,-2.8125 4.621575,-6.25 z m -32.5,-7.5 c 4.66445,-4.8125 9.043325,-8.75 9.730825,-8.75 0.6875,0 -2.566375,3.9375 -7.230825,8.75 -4.66445,4.8125 -9.043325,8.75 -9.730825,8.75 -0.6875,0 2.566375,-3.9375 7.230825,-8.75 z m 158.592725,-1.875 -7.342725,-8.125 8.125,7.34273 c 7.57365,6.84445 9.274125,8.90727 7.342725,8.90727 -0.43025,0 -4.0865,-3.65625 -8.125,-8.125 z m 118.433525,3.75478 c 19.67695,-0.4229 51.17695,-0.42187 70,0.002 18.82307,0.42416 2.72375,0.77017 -35.77625,0.76891 -38.5,-10e-4 -53.90068,-0.3483 -34.22375,-0.7712 z m -217.02625,-19.37978 c 4.66445,-4.8125 9.043325,-8.75 9.730825,-8.75 0.6875,0 -2.566375,3.9375 -7.230825,8.75 -4.66445,4.8125 -9.043325,8.75 -9.730825,8.75 -0.6875,0 2.566375,-3.9375 7.230825,-8.75 z m 39.865425,-0.625 -8.615425,-9.375 9.375,8.61542 c 5.15625,4.73848 9.375,8.95723 9.375,9.375 0,1.90905 -2.11555,0.11062 -10.134575,-8.61542 z m -69.865425,-9.375 c 3.229375,-3.4375 6.434075,-6.25 7.121575,-6.25 0.6875,0 -1.3922,2.8125 -4.621575,6.25 -3.229375,3.4375 -6.434075,6.25 -7.121575,6.25 -0.6875,0 1.3922,-2.8125 4.621575,-6.25 z m 99.810775,-0.625 -6.060775,-6.875 6.875,6.06079 c 3.78125,3.33343 6.875,6.42718 6.875,6.875 0,1.96068 -2.0245,0.36493 -7.689225,-6.06079 z m 138.154175,2.50497 c 22.94322,-0.41218 61.19322,-0.41291 85,-0.002 23.80677,0.41128 5.03505,0.74851 -41.71495,0.74941 -46.75,9e-4 -66.22827,-0.3356 -43.28505,-0.74777 z"
       id="path867" />
    <path
       style="fill:#010101;stroke-width:2.5"
       d="m -362.39852,520.8288 c -4.62055,-4.62055 -5.10104,-8.0177 -4.86192,-34.375 0.14595,-16.08628 0.2032,-97.5915 0.12725,-181.12275 l -0.13808,-151.875 h -46.37415 c -50.30605,0 -53.9095,-0.77555 -66.8447,-14.38655 -12.38822,-13.03547 -12.19466,-37.1565 0.39969,-49.809375 10.96932,-11.020275 34.18091,-32.652825 62.81916,-58.5457 36.02259,-32.569325 119.66429,-109.24975 142.66604,-130.792325 10.40383,-9.74383 47.98204,-44.15355 83.50714,-76.46605 35.52509,-32.3125 87.24557,-79.5625 114.93437,-105 59.605,-54.75867 68.6417,-62.5 72.958275,-62.5 4.0634,0 9.4183,4.65076 75.560625,65.625 29.45797,27.15625 54.53052,49.375 55.71675,49.375 1.18625,0 2.1568,-14.58542 2.1568,-32.41204 0,-29.48619 0.43652,-32.64566 4.83565,-35 3.06908,-1.64252 36.79613,-2.58796 92.32142,-2.58796 76.1992,0 87.9926,0.50683 91.41435,3.92857 3.46303,3.46302 3.92858,18.2428 3.92858,124.71844 v 120.789865 l 29.375,27.16665 c 16.15625,14.94165 35.5625,32.71555 43.125,39.49755 24.59752,22.0589 70.9453,64.974225 77.97795,72.203 13.08287,13.447775 12.5996,37.390855 -1.01968,50.518875 -13.76012,13.2638 -15.7405,13.67705 -65.54392,13.67705 -42.52178,0 -46.4178,0.36693 -46.45558,4.375 -0.0225,2.40625 -0.0225,83.9696 -0.002,181.2519 0.0385,173.5481 -0.0548,176.97098 -4.95877,181.875 -4.95038,4.95037 -8.37628,4.9981 -358.7481,4.9981 -353.34327,0 -353.7559,-0.006 -358.87725,-5.12725 z M 332.72873,317.1735 c 0,-177.88412 0.092,-181.30942 5,-186.21745 4.6955,-4.6955 8.33332,-5 59.73252,-5 47.60268,0 54.9302,-0.51513 56.25,-3.95447 4.41158,-11.49636 8.06998,-7.62033 -100.98252,-106.989905 -28.1875,-25.6847 -52.63968,-49.19835 -54.33815,-52.25255 -2.32475,-4.180325 -3.09725,-34.136025 -3.125,-121.178075 l -0.0369,-115.625 H 226.7462 c -55.12635,0 -68.73467,0.65708 -69.7754,3.36913 -0.71105,1.85302 -1.42025,21.25927 -1.57597,43.125 -0.30043,42.18355 -1.39595,46.00587 -13.18605,46.00587 -2.51037,0 -20.5766,-14.82347 -40.14718,-32.94104 -19.57057,-18.11757 -47.95787,-44.40182 -63.08287,-58.40944 -15.125,-14.00763 -31.02085,-28.42023 -35.324125,-32.02803 l -7.824125,-6.55962 -69.7338,64.34407 c -38.35357,35.38923 -73.64522,67.32857 -78.42587,70.97631 -7.71058,5.88335 -25.05143,21.85941 -88.7986,81.80985 -20.54585,19.322175 -53.43774,49.591275 -121.14348,111.483575 -96.67962,88.378375 -100,91.617475 -100,97.551775 0,10.896 4.05146,11.6669 59.77015,11.37285 49.72242,-0.2624 52.82688,-0.002 57.64134,4.81117 5.02442,5.02445 5.08851,7.37103 5.08851,186.31975 v 181.2312 l 155.625,0.6438 c 85.59375,0.35408 236.90625,0.34788 336.25,-0.015 l 180.625,-0.65756 V 317.17228 Z"
       id="path865" />
  </g>
  <path
     style="fill:#ffffff;fill-opacity:0.99324018;stroke:none;stroke-width:0.00193006;stroke-miterlimit:4;stroke-dasharray:none;stroke-opacity:1"
     d="M 7.261526,29.806763 C 7.263256,27.006267 7.248359,24.223548 7.228413,23.622943 7.206809,22.972407 7.210499,22.572001 7.237543,22.632516 7.26712,22.698706 7.282416,22.512884 7.281443,22.099209 7.2806217,21.75002 7.263575,21.52146 7.24356,21.591298 7.216003,21.687458 7.198212,21.633258 7.170264,21.368038 7.129109,20.977482 7.080733,20.856881 6.9336527,20.778166 6.6721697,20.638225 5.279212,20.581137 3.297917,20.629163 c -0.5379212,0.01304 -0.7000846,-0.05901 -0.7217842,-0.320701 -0.011485,-0.138506 0.00399,-0.190106 0.05702,-0.190106 0.089223,0 0.5064364,-0.443544 0.4710584,-0.500787 -0.013981,-0.02262 0.138159,-0.187588 0.3380896,-0.36659 0.1999306,-0.179002 0.3482269,-0.285631 0.3295471,-0.236952 -0.01868,0.04868 -0.016583,0.08851 0.00466,0.08851 0.052106,0 0.4490951,-0.415513 0.4727114,-0.494768 0.010332,-0.03467 0.1772317,-0.223554 0.3708884,-0.419734 0.2442727,-0.247456 0.3640847,-0.337305 0.3912273,-0.293387 0.045632,0.07383 0.3036679,-0.146586 0.4533433,-0.387257 0.1585665,-0.254967 0.6198935,-0.700031 0.6593824,-0.636137 0.048669,0.07875 0.446445,-0.282137 0.4863868,-0.441277 0.043813,-0.174567 0.6312094,-0.707208 0.684614,-0.620798 0.042991,0.06956 0.2915199,-0.179664 0.7637072,-0.765847 0.222903,-0.276717 0.3773669,-0.391812 0.3179174,-0.236889 -0.016975,0.04424 -0.014942,0.08043 0.00452,0.08043 0.064295,0 1.0421003,-1.038953 1.0421003,-1.107268 0,-0.03681 0.020476,-0.05427 0.045501,-0.0388 0.057185,0.03534 0.1869382,-0.07661 0.4809218,-0.414946 0.3800508,-0.437389 1.0891048,-1.08069 1.1608168,-1.053171 0.07392,0.02837 0.613029,-0.490115 0.58843,-0.565912 -0.01653,-0.05093 1.648153,-1.645057 1.717859,-1.645057 0.02279,0 -0.09592,0.14285 -0.2638,0.317444 -0.451421,0.469483 -0.542176,0.599186 -0.250537,0.358053 0.44693,-0.36953 0.718914,-0.674359 0.643361,-0.721053 -0.04888,-0.030209 0.03922,-0.1375658 0.321391,-0.3916611 0.451794,-0.4068364 0.609168,-0.4926405 0.282799,-0.1541876 -0.123966,0.1285548 -0.209553,0.2495759 -0.190194,0.2689354 0.04869,0.048686 0.814295,-0.7250835 0.777056,-0.7853379 -0.01653,-0.026745 0.07511,-0.1455604 0.203638,-0.2640351 0.18294,-0.1686288 0.243573,-0.200239 0.279197,-0.1455569 0.03535,0.054261 0.09155,0.02125 0.251789,-0.1479046 0.113455,-0.119766 0.197442,-0.2442761 0.186638,-0.2766892 -0.02016,-0.060479 2.136795,-2.0696906 2.387317,-2.223795 0.07661,-0.047124 0.261375,-0.2267922 0.410595,-0.3992633 0.14922,-0.172471 0.358231,-0.3579275 0.464468,-0.4121256 0.106237,-0.054198 0.336256,-0.2595527 0.511153,-0.4563436 0.174898,-0.196791 0.329126,-0.3466711 0.342731,-0.3330669 0.0136,0.013604 -0.0042,0.059571 -0.03951,0.1021489 -0.096,0.1156677 0.01946,0.093515 0.125959,-0.024168 0.115337,-0.1274463 0.147699,-0.126855 0.32737,0.00598 0.08002,0.05916 0.168512,0.093335 0.196652,0.075943 0.02814,-0.017392 0.193929,0.1170526 0.368417,0.298765 0.17449,0.1817124 0.347488,0.3303861 0.384441,0.3303861 0.03695,0 0.359029,0.2931819 0.715723,0.6515153 0.356695,0.3583335 0.682819,0.6646406 0.724722,0.6806825 0.128506,0.049197 1.747648,1.5718251 1.759847,1.6549464 0.01875,0.1277304 0.471873,0.5521455 0.515353,0.4826985 0.02585,-0.041296 0.138702,0.018384 0.360147,0.1904667 0.177372,0.1378341 0.371859,0.2506074 0.432193,0.2506074 0.263448,0 0.436121,-0.2873261 0.436764,-0.7267711 3.56e-4,-0.2336474 0.09823,-0.2056448 0.10973,0.031391 0.01996,0.4112804 0.08417,-0.8045885 0.08868,-1.6791047 l 0.005,-0.9777292 1.231685,-0.00688 c 0.677427,-0.00379 1.780229,-0.022385 2.450672,-0.041331 1.115365,-0.031519 1.011743,-0.035753 -1.218987,-0.0498 -1.340886,-0.00844 -2.40369,-0.022835 -2.361788,-0.031982 0.0419,-0.00915 1.18584,-0.025242 2.542082,-0.035769 l 2.465895,-0.01914 -0.0018,3.9652756 c -0.0011,2.474111 0.01875,4.17014 0.05286,4.510048 l 0.05468,0.544773 0.226196,0.242489 c 0.124407,0.13337 0.319784,0.368198 0.434171,0.521841 0.28717,0.385724 0.569644,0.649268 0.615821,0.574553 0.04223,-0.06832 0.619292,0.451077 0.619292,0.557399 0,0.036 0.112085,0.175858 0.249079,0.310792 0.199466,0.196467 0.252579,0.227341 0.266653,0.155002 0.01332,-0.06846 0.08521,-0.01361 0.296926,0.226555 0.662981,0.752066 0.811112,0.894876 0.85614,0.825387 0.03238,-0.04997 0.128596,0.02829 0.368409,0.299696 0.731756,0.828142 0.827364,0.921569 0.856905,0.837354 0.02179,-0.06211 0.08882,-0.01927 0.292399,0.186868 0.145272,0.147099 0.268449,0.290309 0.273726,0.318245 0.01666,0.08821 0.473212,0.582786 0.538597,0.583457 0.103424,0.0011 0.134577,0.242926 0.04826,0.374667 -0.06808,0.103897 -0.1334,0.123811 -0.505042,0.153966 -0.260361,0.02113 -0.480973,0.01406 -0.565605,-0.01812 -0.177824,-0.06761 -1.939497,-0.06914 -2.313101,-0.002 -0.155325,0.02791 -0.414576,0.06393 -0.576115,0.08005 -0.2041,0.02036 -0.335631,0.06537 -0.431125,0.147507 -0.124692,0.107257 -0.139402,0.157464 -0.158839,0.542143 -0.01359,0.269016 -0.03379,0.377538 -0.05527,0.296963 -0.01861,-0.06984 -0.0321,2.872874 -0.02997,6.539358 l 0.0039,6.666336 h -1.104707 c -0.702611,0 -1.104708,-0.01849 -1.104708,-0.05079 0,-0.03338 -1.236917,-0.05079 -3.609168,-0.05079 -2.393178,0 -3.598591,0.01711 -3.577776,0.05079 0.02062,0.03336 -0.421733,0.05079 -1.289179,0.05079 -0.825592,0 -1.332335,-0.01904 -1.35196,-0.05079 -0.01795,-0.02905 -0.278879,-0.05079 -0.609494,-0.05079 -0.330614,0 -0.591541,0.02174 -0.609493,0.05079 -0.01962,0.03175 -0.525369,0.05079 -1.348963,0.05079 -0.84452,0 -1.317571,-0.01823 -1.317571,-0.05079 0,-0.03339 -1.261313,-0.05079 -3.682357,-0.05079 -2.421044,0 -3.6823561,0.0174 -3.6823561,0.05079 0,0.03234 -0.4116123,0.05079 -1.1332547,0.05079 H 7.2583737 l 0.00315,-5.09181 z"
     id="path847"
     transform="matrix(2.5,0,0,2.5,0,-10)" />
</svg>
