<?xml version="1.0" encoding="UTF-8" standalone="no"?>
<svg
   xmlns:dc="http://purl.org/dc/elements/1.1/"
   xmlns:cc="http://creativecommons.org/ns#"
   xmlns:rdf="http://www.w3.org/1999/02/22-rdf-syntax-ns#"
   xmlns:svg="http://www.w3.org/2000/svg"
   xmlns="http://www.w3.org/2000/svg"
   xmlns:sodipodi="http://sodipodi.sourceforge.net/DTD/sodipodi-0.dtd"
   xmlns:inkscape="http://www.inkscape.org/namespaces/inkscape"
   viewBox="0 0 100 80"
   width="40"
   height="40"
   version="1.1"
   id="svg8"
   sodipodi:docname="iconNotifications.svg"
   inkscape:version="1.0.2 (e86c870879, 2021-01-15)">
  <metadata
     id="metadata14">
    <rdf:RDF>
      <cc:Work
         rdf:about="">
        <dc:format>image/svg+xml</dc:format>
        <dc:type
           rdf:resource="http://purl.org/dc/dcmitype/StillImage" />
        <dc:title />
      </cc:Work>
    </rdf:RDF>
  </metadata>
  <defs
     id="defs12" />
  <sodipodi:namedview
     pagecolor="#ffffff"
     bordercolor="#666666"
     borderopacity="1"
     objecttolerance="10"
     gridtolerance="10"
     guidetolerance="10"
     inkscape:pageopacity="0"
     inkscape:pageshadow="2"
     inkscape:window-width="1883"
     inkscape:window-height="1136"
     id="namedview10"
     showgrid="false"
     inkscape:zoom="22.62"
     inkscape:cx="18.156352"
     inkscape:cy="19.267901"
     inkscape:window-x="37"
     inkscape:window-y="27"
     inkscape:window-maximized="1"
     inkscape:current-layer="svg8"
     inkscape:document-rotation="0" />
  <path
     style="fill:#ffffff;stroke:#000000;stroke-width:1;stroke-opacity:1;fill-opacity:1;stroke-miterlimit:4;stroke-dasharray:none"
     d="m 29.562188,30.380881 c -0.401194,-0.02128 -5.832229,-0.05444 -12.068966,-0.07368 l -11.3395225,-0.035 -0.3594322,-0.09571 C 5.251583,30.031988 4.9504613,29.872483 4.6501856,29.570474 4.2844292,29.202605 4.2075533,28.981467 4.2115004,28.308573 4.214163,27.854656 4.2300464,27.75432 4.3597161,27.372291 4.6183588,26.610288 5.1191272,25.865181 6.2832693,24.510185 7.7399226,22.814722 8.2002157,22.121868 8.5199599,21.143412 8.761573,20.404048 8.8011632,19.935686 8.75697,18.339519 8.69519,16.108127 8.709422,15.537825 8.847188,14.724426 c 0.3828484,-2.260406 1.1226225,-4.227959 2.19784,-5.8455232 1.537506,-2.3130349 3.82004,-3.9394578 6.42609,-4.5789202 1.392461,-0.3416768 2.584327,-0.4742332 3.568641,-0.3968955 2.448361,0.1923681 4.65301,1.2597585 6.577851,3.1846954 1.757485,1.7575725 2.979272,3.9757575 3.506799,6.3666795 0.195313,0.885222 0.212194,1.20493 0.197652,3.743424 -0.01454,2.537192 -0.0044,2.709406 0.207512,3.524996 0.255126,0.981928 0.765363,1.862212 1.767134,3.048737 0.24376,0.288716 0.678937,0.805957 0.96706,1.149425 1.34868,1.607744 1.869562,2.779617 1.667225,3.750901 -0.169994,0.816023 -0.703344,1.287747 -1.68373,1.489182 -1.056517,0.217077 -3.008956,0.308656 -4.685074,0.219754 z"
     id="path830"
     transform="matrix(2.5,0,0,2.5,0,-10)" />
  <path
     style="fill:#ffffff;fill-opacity:1;stroke:#080000;stroke-width:2.5;stroke-miterlimit:4;stroke-dasharray:none;stroke-opacity:1"
     d="m 48.540747,79.040656 c -4.127752,-0.568745 -7.49021,-2.915468 -9.251817,-6.457015 -0.425285,-0.854998 -0.819175,-1.90232 -0.743693,-1.97743 0.11575,-0.115175 6.418513,-0.2883 10.510565,-0.28871 3.943558,-3.98e-4 12.80196,0.188525 12.891815,0.27495 0.08413,0.0809 -0.68784,1.858965 -1.163985,2.681005 -1.685959,2.910732 -4.469642,4.863347 -8.005747,5.615629 -1.008393,0.214526 -3.208905,0.293245 -4.237138,0.151576 z"
     id="path832" />
</svg>
