<?xml version="1.0" encoding="UTF-8" standalone="no"?>
<svg
   xmlns:dc="http://purl.org/dc/elements/1.1/"
   xmlns:cc="http://creativecommons.org/ns#"
   xmlns:rdf="http://www.w3.org/1999/02/22-rdf-syntax-ns#"
   xmlns:svg="http://www.w3.org/2000/svg"
   xmlns="http://www.w3.org/2000/svg"
   xmlns:sodipodi="http://sodipodi.sourceforge.net/DTD/sodipodi-0.dtd"
   xmlns:inkscape="http://www.inkscape.org/namespaces/inkscape"
   viewBox="0 0 100 80"
   width="40"
   height="40"
   version="1.1"
   id="svg8"
   sodipodi:docname="iconNotifications.svg"
   inkscape:version="1.0.2 (e86c870879, 2021-01-15)">
  <metadata
     id="metadata14">
    <rdf:RDF>
      <cc:Work
         rdf:about="">
        <dc:format>image/svg+xml</dc:format>
        <dc:type
           rdf:resource="http://purl.org/dc/dcmitype/StillImage" />
        <dc:title />
      </cc:Work>
    </rdf:RDF>
  </metadata>
  <defs
     id="defs12" />
  <sodipodi:namedview
     pagecolor="#ffffff"
     bordercolor="#666666"
     borderopacity="1"
     objecttolerance="10"
     gridtolerance="10"
     guidetolerance="10"
     inkscape:pageopacity="0"
     inkscape:pageshadow="2"
     inkscape:window-width="1883"
     inkscape:window-height="1136"
     id="namedview10"
     showgrid="false"
     inkscape:zoom="22.62"
     inkscape:cx="18.156352"
     inkscape:cy="19.267901"
     inkscape:window-x="37"
     inkscape:window-y="27"
     inkscape:window-maximized="1"
     inkscape:current-layer="svg8"
     inkscape:document-rotation="0" />
  <path
     style="fill:#000000;fill-opacity:1;stroke:#000000;stroke-width:0.199275;stroke-opacity:0.607948"
     d="M 47.434238,-6.919167 C 43.508908,-6.30757 39.739809,-5.6490051 36.075529,-3.9886003 24.556403,1.2309658 17.875888,12.055058 15.453273,24.080346 c -0.742581,3.6862 -0.500959,7.618107 -0.500959,11.358709 0,1.798861 0.229725,3.855186 -0.392254,5.579716 -0.961106,2.664914 -3.334638,4.839608 -5.1028905,6.975444 -4.2976171,5.190731 -8.2139405,12.001572 -4.5281392,18.73111 3.6337504,6.634484 12.3660277,5.978268 18.7914097,5.978268 1.65598,0 5.798921,-0.746485 7.113741,0.319439 0.747683,0.606396 0.906107,2.01109 1.246669,2.868971 0.750072,1.89033 1.652592,3.72765 2.840873,5.383431 4.652886,6.483831 12.593223,8.243628 20.084985,6.906295 4.919119,-0.878009 9.273683,-4.437071 11.682741,-8.710537 0.784939,-1.392737 1.464667,-2.861398 1.9778,-4.376291 0.245317,-0.724368 0.394369,-1.766777 1.114552,-2.186452 1.467666,-0.85529 4.865315,-0.204856 6.547395,-0.204856 7.119917,0 17.390982,0.633896 19.9732,-7.971024 1.996541,-6.653214 -1.413864,-11.999381 -5.503393,-16.935438 -1.732303,-2.090997 -4.159483,-4.320095 -4.979704,-6.977635 -0.70264,-2.276524 -0.323421,-5.018558 -0.323421,-7.373198 0,-4.137359 -0.105793,-8.323344 -1.114744,-12.355088 C 80.839208,6.938418 69.566988,-5.1454355 54.608157,-6.6420756 52.24057,-6.8789733 49.827933,-7.2920925 47.434238,-6.919167 m 0,6.75261348 C 62.620631,-2.6243585 75.725602,10.682846 78.199404,24.678172 c 0.988616,5.593467 -0.698468,11.922261 0.831778,17.336978 1.789697,6.333178 7.921204,9.878093 10.449605,15.742774 1.367231,3.171073 0.494599,6.846512 -3.187806,7.679284 C 80.202522,66.8146 73.194395,65.928223 66.96325,65.928223 H 30.09726 c -4.184587,0 -8.369775,0.02011 -12.554363,-1.99e-4 -2.038609,-0.0098 -4.774284,-0.383407 -6.217358,-1.970438 -1.6708271,-1.83732 -1.030914,-5.01736 -0.0029,-6.996765 2.537895,-4.886637 7.414347,-8.17608 9.545799,-13.351466 2.029464,-4.927288 0.187161,-10.606045 0.9191,-15.742773 C 23.369985,16.760753 28.615717,6.8762244 39.264009,2.0559264 41.84423,0.88791224 44.653617,0.28347042 47.43431,-0.16655352 M 62.180621,72.90287 c -3.244402,11.862478 -20.668854,11.861281 -23.913061,0 l 5.579716,-0.199277 h 10.760893 z"
     id="path944" />
  <path
     style="fill:#ffffff;stroke:#000000;stroke-width:0.0451138;stroke-opacity:0.607948;fill-opacity:1"
     d="m 29.562188,30.380881 c -0.401194,-0.02128 -5.832229,-0.05444 -12.068966,-0.07368 l -11.3395225,-0.035 -0.3594322,-0.09571 C 5.251583,30.031988 4.9504613,29.872483 4.6501856,29.570474 4.2844292,29.202605 4.2075533,28.981467 4.2115004,28.308573 4.214163,27.854656 4.2300464,27.75432 4.3597161,27.372291 4.6183588,26.610288 5.1191272,25.865181 6.2832693,24.510185 7.7399226,22.814722 8.2002157,22.121868 8.5199599,21.143412 8.761573,20.404048 8.8011632,19.935686 8.75697,18.339519 8.69519,16.108127 8.709422,15.537825 8.847188,14.724426 c 0.3828484,-2.260406 1.1226225,-4.227959 2.19784,-5.8455232 1.537506,-2.3130349 3.82004,-3.9394578 6.42609,-4.5789202 1.392461,-0.3416768 2.584327,-0.4742332 3.568641,-0.3968955 2.448361,0.1923681 4.65301,1.2597585 6.577851,3.1846954 1.757485,1.7575725 2.979272,3.9757575 3.506799,6.3666795 0.195313,0.885222 0.212194,1.20493 0.197652,3.743424 -0.01454,2.537192 -0.0044,2.709406 0.207512,3.524996 0.255126,0.981928 0.765363,1.862212 1.767134,3.048737 0.24376,0.288716 0.678937,0.805957 0.96706,1.149425 1.34868,1.607744 1.869562,2.779617 1.667225,3.750901 -0.169994,0.816023 -0.703344,1.287747 -1.68373,1.489182 -1.056517,0.217077 -3.008956,0.308656 -4.685074,0.219754 z"
     id="path830"
     transform="matrix(2.5,0,0,2.5,0,-10)" />
  <path
     style="fill:#ffffff;fill-opacity:1;stroke:#000000;stroke-width:0.0451138;stroke-opacity:0.607948"
     d="m 19.416299,36.616401 c -1.651101,-0.227498 -2.996084,-1.166187 -3.700727,-2.582806 -0.170114,-0.341999 -0.32767,-0.760928 -0.297477,-0.790972 0.0463,-0.04607 2.567405,-0.11532 4.204226,-0.115484 1.577423,-1.59e-4 5.120784,0.07541 5.156726,0.10998 0.03365,0.03236 -0.275136,0.743586 -0.465594,1.072402 -0.674384,1.164293 -1.787857,1.945339 -3.202299,2.246252 -0.403357,0.08581 -1.283562,0.117298 -1.694855,0.06063 z"
     id="path832"
     transform="matrix(2.5,0,0,2.5,0,-10)" />
</svg>
