<?xml version="1.0" encoding="UTF-8" standalone="no"?>
<!-- Created with Inkscape (http://www.inkscape.org/) -->

<svg
   version="1.1"
   id="svg13335"
   width="50"
   height="50"
   viewBox="0 0 49.999999 49.999999"
   sodipodi:docname="ocean-transportation.svg"
   inkscape:version="1.1 (c68e22c387, 2021-05-23)"
   xmlns:inkscape="http://www.inkscape.org/namespaces/inkscape"
   xmlns:sodipodi="http://sodipodi.sourceforge.net/DTD/sodipodi-0.dtd"
   xmlns="http://www.w3.org/2000/svg"
   xmlns:svg="http://www.w3.org/2000/svg">
  <defs
     id="defs13339" />
  <sodipodi:namedview
     id="namedview13337"
     pagecolor="#ffffff"
     bordercolor="#666666"
     borderopacity="1.0"
     inkscape:pageshadow="2"
     inkscape:pageopacity="0.0"
     inkscape:pagecheckerboard="0"
     showgrid="false"
     width="50px"
     inkscape:zoom="12.2075"
     inkscape:cx="27.319272"
     inkscape:cy="21.421258"
     inkscape:window-width="1920"
     inkscape:window-height="1013"
     inkscape:window-x="1791"
     inkscape:window-y="-9"
     inkscape:window-maximized="1"
     inkscape:current-layer="g13341" />
  <g
     inkscape:groupmode="layer"
     inkscape:label="Image"
     id="g13341">
    <path
       style="fill:#000000;stroke-width:0.0889876"
       d="M 23.082822,43.660222 C 12.976079,42.861626 4.5632225,42.165708 4.387588,42.113741 3.9326782,41.979138 3.3680577,41.544374 3.1031163,41.124692 2.8058001,40.653712 2.4499186,39.100558 2.379589,37.96704 2.291977,36.55496 2.6107103,35.754879 3.4267178,35.338579 c 0.1890258,-0.09643 1.0749727,-0.376597 1.9687816,-0.622594 4.3611029,-1.200275 6.3049376,-1.98017 12.5260546,-5.025622 5.257814,-2.573891 7.125015,-3.390073 9.988234,-4.36602 5.362051,-1.827689 11.110607,-2.91567 17.666422,-3.343582 1.578664,-0.103044 1.632906,-0.100906 1.868735,0.07361 0.478507,0.354101 0.510372,0.550128 0.297461,1.82986 -0.407755,2.450886 -1.353375,5.683445 -2.454175,8.389443 -0.699214,1.71883 -2.029338,4.39071 -2.90165,5.828671 -0.838585,1.382369 -0.923387,1.583064 -0.845152,2.000095 0.03149,0.167679 0.494788,0.969517 1.029623,1.781867 0.534834,0.81235 0.998296,1.614886 1.029911,1.783412 0.04285,0.228233 0.0038,0.41288 -0.152511,0.723701 -0.279388,0.555182 -0.643954,0.744159 -1.409936,0.73086 -0.318894,-0.0055 -8.848958,-0.663465 -18.955694,-1.462059 z M 37.59984,36.273195 c 1.055329,-0.370222 1.881767,-1.278953 2.180629,-2.397749 0.174233,-0.652265 0.152975,-1.022302 -0.07252,-1.262332 -0.429064,-0.456722 -0.984025,-0.133625 -1.094704,0.637332 -0.03494,0.243567 -0.138466,0.589652 -0.230002,0.769079 -0.180625,0.354059 -0.791124,0.923096 -1.068049,0.995513 -0.166994,0.04368 -0.172367,-0.02211 -0.172367,-2.111271 v -2.156349 l 0.23092,-0.215734 c 0.978466,-0.914098 0.427607,-2.48491 -0.871412,-2.48491 -1.356886,0 -1.97159,1.491621 -1.002544,2.432748 l 0.308225,0.299346 v 2.158474 c 0,2.018803 -0.01006,2.154664 -0.155729,2.099581 -0.703023,-0.265875 -1.357056,-1.190808 -1.357056,-1.919146 0,-0.58873 -0.675047,-0.925447 -1.067848,-0.532647 -0.36322,0.363218 -0.169036,1.479404 0.411157,2.363396 0.833387,1.269771 2.514919,1.832078 3.961303,1.324669 z M 6.5311747,28.79962 c 0,-4.055437 0.00735,-4.244881 0.1780478,-4.579453 0.097928,-0.191955 0.2681148,-0.434423 0.3781898,-0.538818 0.459497,-0.435763 3.4950127,-2.429126 3.8717757,-2.542514 0.303129,-0.09123 1.053891,-0.122063 2.972074,-0.122063 h 2.566493 V 19.54848 18.080188 h 2.803099 2.803106 v 1.468292 1.468292 h 2.345005 c 2.289832,0 2.352118,0.0048 2.647373,0.201994 0.496208,0.331489 0.613527,0.677129 0.613685,1.807986 l 1.44e-4,0.986624 -1.268071,0.469944 c -2.645989,0.980598 -5.267718,2.157276 -9.276935,4.163656 -2.468797,1.235489 -4.863098,2.342 -6.451579,2.981554 -1.1903817,0.479273 -3.863525,1.401536 -4.0622907,1.401536 -0.099141,0 -0.1201103,-0.738611 -0.1201103,-4.230446 z M 16.499709,15.788764 c 0.0025,-1.058139 0.164607,-1.491851 0.677191,-1.810489 0.32717,-0.203381 0.427913,-0.215291 2.034969,-0.240582 1.61616,-0.02543 1.708395,-0.01759 2.090487,0.177975 0.219849,0.11252 0.490144,0.340648 0.600665,0.506951 0.177677,0.267362 0.200939,0.414174 0.200939,1.268069 v 0.965702 h -2.803106 -2.803099 l 0.0019,-0.867626 z m 1.049197,-3.229004 c -0.401862,-0.21225 -0.594218,-0.473512 -0.662895,-0.900343 l -0.05235,-0.325138 -0.59066,0.0029 c -0.678264,0.0033 -1.086339,-0.141661 -1.55344,-0.551784 -0.32406,-0.284506 -0.330922,-0.286064 -0.782583,-0.177713 C 12.606715,10.91961 11.222492,10.241034 10.63459,9.0034847 10.440487,8.5948855 10.402105,8.3891319 10.4022,7.7576611 c 0,-0.6305842 0.03707,-0.8291223 0.222468,-1.1936592 0.283589,-0.5576754 0.829032,-1.1031663 1.386865,-1.3869749 0.609996,-0.3103483 1.835745,-0.3192613 2.446603,-0.01779 0.568226,0.2804386 1.13428,0.85245 1.384567,1.3991499 0.206156,0.450297 0.223713,0.464199 0.649918,0.514677 1.244474,0.1473897 2.035705,1.3465818 1.758089,2.6645669 -0.0658,0.3123622 -0.05662,0.3337012 0.143053,0.3337012 0.308871,0 0.793611,0.355303 0.973663,0.713673 0.332638,0.662075 0.06447,1.456055 -0.600507,1.777967 -0.456871,0.221165 -0.794919,0.220277 -1.218045,-0.0032 z"
       id="path13363" />
  </g>
</svg>
